<?xml version="1.0" standalone="no"?>
<!DOCTYPE svg PUBLIC "-//W3C//DTD SVG 20010904//EN"
 "http://www.w3.org/TR/2001/REC-SVG-20010904/DTD/svg10.dtd">
<svg version="1.0" xmlns="http://www.w3.org/2000/svg"
 width="825.000000pt" height="825.000000pt" viewBox="0 0 825.000000 825.000000"
 preserveAspectRatio="xMidYMid meet">
<metadata>
Created by potrace 1.14, written by Peter Selinger 2001-2017
</metadata>
<g transform="translate(0.000000,825.000000) scale(0.100000,-0.100000)"
fill="#000000" stroke="none">
<path d="M3935 7499 c-231 -16 -507 -66 -742 -135 -19 -5 -23 -3 -23 18 0 43
-38 68 -105 68 -51 0 -76 -8 -189 -61 -332 -155 -598 -343 -777 -550 -84 -97
-89 -107 -89 -172 0 -64 11 -91 74 -182 41 -59 41 -61 33 -115 -13 -85 0 -371
22 -482 11 -53 36 -145 56 -204 21 -63 32 -110 26 -112 -43 -14 -405 -200
-479 -246 -193 -120 -486 -368 -782 -665 -220 -220 -272 -284 -396 -491 -73
-122 -88 -153 -92 -198 -4 -45 -1 -57 18 -77 20 -22 32 -25 90 -25 l67 0 54
62 c29 33 79 78 111 99 65 42 167 80 198 74 11 -2 18 0 16 4 -3 4 40 16 96 26
197 34 364 9 563 -85 104 -50 208 -117 200 -130 -4 -6 -1 -9 7 -8 7 2 12 -3
10 -10 -1 -8 2 -11 7 -7 12 7 33 -29 23 -40 -4 -5 -2 -5 5 -1 15 8 96 -151 90
-176 -3 -9 0 -19 5 -20 10 -4 13 -143 5 -198 -3 -14 -5 -33 -6 -43 0 -10 -5
-15 -11 -12 -6 3 -7 -1 -4 -10 4 -8 1 -22 -6 -30 -7 -9 -14 -28 -15 -43 -3
-33 -101 -238 -125 -262 -3 -3 -16 -22 -30 -42 -13 -20 -28 -34 -32 -32 -4 3
-8 -1 -8 -9 0 -20 -50 -68 -64 -60 -6 3 -8 3 -4 -2 12 -13 -103 -95 -133 -95
-45 0 -79 -53 -79 -122 0 -37 5 -60 15 -68 8 -7 12 -17 8 -23 -3 -5 -1 -7 4
-4 6 4 16 0 23 -8 8 -10 30 -15 60 -15 43 0 52 4 77 33 15 19 45 46 66 61 32
25 39 27 55 15 15 -12 16 -12 4 2 -10 14 -9 19 10 31 25 17 145 78 153 79 2 0
21 7 40 15 58 24 225 66 241 60 7 -3 16 -1 19 3 3 5 33 12 67 16 35 4 77 9 93
12 56 9 454 16 472 8 10 -4 31 -7 46 -6 36 3 207 -20 207 -28 0 -3 15 -6 33
-7 17 -1 51 -6 75 -13 l44 -12 -17 -25 c-9 -14 -26 -37 -38 -50 -45 -52 -198
-307 -245 -410 -26 -56 -32 -84 -32 -136 0 -84 19 -105 102 -110 31 -1 54 0
52 3 -2 3 11 19 29 36 40 38 107 87 107 79 0 -3 15 5 33 17 30 20 133 70 227
111 90 38 213 66 295 66 70 0 87 3 110 22 l28 22 39 -45 c21 -24 38 -50 38
-56 0 -7 4 -13 9 -13 13 0 113 -199 105 -211 -3 -5 -1 -9 5 -9 13 0 64 -157
57 -176 -3 -8 -2 -13 3 -10 12 8 20 -67 16 -139 -6 -96 -94 -343 -117 -329 -4
3 -7 2 -6 -3 2 -5 -6 -27 -16 -51 -16 -34 -24 -42 -46 -42 -15 0 -36 -10 -49
-24 -20 -21 -22 -32 -18 -78 7 -83 10 -91 38 -115 30 -26 72 -29 134 -11 22 6
43 11 48 10 4 -1 7 2 7 7 0 7 48 22 67 20 3 0 10 6 15 15 5 9 15 16 23 16 7 0
50 27 94 60 45 33 85 60 89 60 4 0 19 11 34 25 15 14 31 25 36 25 5 0 17 9 27
20 10 11 22 20 27 20 5 0 24 11 41 24 18 13 50 33 72 44 22 11 54 32 70 46 17
14 36 26 43 26 6 0 12 5 12 11 0 8 5 7 15 -1 13 -11 14 -10 10 1 -3 9 14 29
47 54 142 109 314 312 425 500 36 60 70 113 76 117 7 4 8 8 4 8 -9 0 60 112
75 121 5 3 8 8 7 10 -2 2 14 33 34 69 54 98 83 166 110 259 13 46 27 79 31 73
6 -10 93 -43 131 -49 29 -5 113 -27 260 -69 119 -33 144 -37 290 -41 189 -6
287 6 359 45 60 32 245 214 300 294 35 52 55 103 173 433 23 63 25 81 20 170
-8 155 -24 263 -61 413 -32 130 -40 171 -37 199 1 14 93 -8 117 -28 43 -36 71
-132 79 -279 14 -242 79 -414 202 -533 43 -41 85 -57 154 -57 56 0 97 27 186
125 92 100 115 154 121 279 5 122 -27 384 -56 469 -47 132 -137 255 -287 389
-239 214 -506 313 -795 295 -119 -7 -170 -28 -247 -100 -91 -86 -106 -119
-111 -247 -3 -92 -1 -115 22 -185 17 -50 30 -123 37 -195 5 -63 22 -180 36
-260 25 -134 26 -151 15 -238 -20 -158 -70 -276 -137 -319 -17 -12 -54 -29
-81 -38 -55 -19 -222 -32 -251 -20 -10 5 -22 7 -27 6 -5 -1 -16 1 -25 5 -9 4
-18 8 -21 9 -3 1 -12 4 -20 8 -12 4 -47 14 -80 22 -3 0 -15 6 -28 13 -12 7
-26 11 -31 8 -5 -3 -19 3 -31 14 -12 11 -27 17 -31 14 -5 -3 -9 -2 -9 3 0 4
-14 16 -31 25 -18 11 -27 22 -23 29 4 8 3 9 -4 5 -6 -4 -18 6 -27 24 -8 16
-19 30 -24 30 -4 0 -14 12 -21 28 -8 15 -25 39 -38 53 -15 17 -41 84 -72 185
-88 286 -132 367 -272 500 -124 118 -352 284 -390 284 -26 0 -23 6 27 63 33
38 45 60 45 84 0 22 27 81 81 180 133 242 267 527 280 597 6 33 15 69 21 79 5
10 8 40 7 67 -2 35 2 55 14 68 26 29 22 94 -7 121 -19 18 -33 22 -72 19 -45
-3 -51 -7 -93 -58 -73 -90 -195 -159 -351 -198 -126 -32 -120 -34 -375 134
-182 120 -273 210 -453 449 -206 273 -248 374 -240 565 7 152 60 266 174 375
97 92 298 195 381 195 55 0 83 31 83 92 0 43 -3 48 -57 94 -48 41 -65 49 -112
55 -71 9 -213 8 -366 -2z m-943 -319 c43 -12 83 -56 93 -101 4 -17 37 -90 75
-164 37 -73 84 -182 105 -241 21 -60 79 -189 129 -286 l90 -178 -25 -26 c-35
-38 -327 -229 -446 -292 -56 -29 -113 -66 -125 -81 l-23 -27 -30 46 c-32 49
-100 138 -262 341 -57 70 -103 134 -103 142 0 8 -56 78 -125 157 -86 98 -125
151 -125 167 0 14 -4 21 -10 18 -19 -12 -10 14 20 59 17 25 47 55 68 67 20 12
57 41 82 64 87 79 443 309 513 330 53 17 54 17 99 5z m1047 -1667 c113 -84
736 -733 758 -789 5 -14 -57 -100 -84 -117 -7 -4 -13 -14 -13 -20 0 -42 -318
-295 -406 -323 -48 -16 -53 -16 -95 3 -32 14 -50 31 -64 59 -45 88 -167 264
-235 339 -40 44 -120 143 -178 220 -57 77 -134 170 -170 207 -76 78 -77 97
-10 149 24 18 77 66 119 107 42 40 121 106 175 146 l99 73 34 -14 c19 -7 51
-26 70 -40z m-2890 -979 c16 -12 22 -23 18 -41 -3 -18 3 -30 29 -50 19 -14 34
-32 34 -39 0 -8 5 -23 12 -33 22 -36 5 -48 -79 -54 -43 -3 -124 -17 -180 -32
-141 -36 -152 -27 -75 62 91 108 147 166 177 184 36 23 35 23 64 3z m620 -199
c103 -21 174 -62 276 -158 108 -101 179 -216 190 -307 10 -83 -33 -127 -49
-50 -8 42 -85 148 -176 244 -62 65 -91 86 -170 126 -52 26 -116 50 -142 54
-26 4 -58 16 -71 27 -14 10 -31 19 -39 19 -8 0 -23 6 -33 14 -16 12 -17 16 -6
30 18 21 123 22 220 1z m6016 -311 c12 -19 21 -68 30 -162 11 -117 11 -142 -2
-186 -31 -105 -79 -176 -119 -176 -44 0 -97 105 -144 286 -46 178 -39 221 35
212 24 -3 35 0 35 9 0 16 42 27 74 19 16 -4 26 -1 30 9 9 24 42 17 61 -11z
m-5547 -736 c7 -7 12 -17 12 -24 0 -7 22 -34 48 -61 56 -56 74 -85 66 -107 -7
-17 -14 -20 -114 -37 -35 -6 -76 -17 -92 -25 -31 -16 -64 -18 -73 -5 -3 5 4
24 14 43 18 30 80 169 94 211 7 20 28 22 45 5z m1164 -53 c108 -17 217 -49
283 -83 97 -49 241 -135 306 -183 173 -127 368 -390 400 -537 21 -100 22 -137
4 -156 -22 -21 -49 -17 -53 9 -3 10 -14 35 -26 54 -13 20 -37 62 -54 94 -83
152 -350 380 -582 496 -58 29 -289 108 -400 137 -40 10 -134 19 -243 24 -102
4 -183 12 -189 18 -20 20 1 40 82 81 63 31 95 41 134 42 28 0 74 4 101 9 79
12 143 11 237 -5z m104 -570 c3 -8 14 -17 25 -20 10 -4 19 -15 19 -25 0 -13 5
-17 20 -13 25 7 38 -23 19 -41 -8 -8 -48 -25 -89 -39 -42 -14 -88 -31 -103
-38 -21 -10 -30 -10 -39 -1 -17 17 -2 52 53 129 44 63 82 82 95 48z m1007
-917 c32 -19 66 -49 88 -80 16 -22 18 -32 9 -48 -6 -11 -17 -20 -24 -20 -7 0
-23 -12 -37 -26 -13 -14 -53 -46 -87 -71 -54 -38 -66 -43 -77 -32 -10 12 -7
30 16 104 16 50 29 100 29 112 0 35 22 73 42 73 10 0 28 -6 41 -12z"/>
</g>
</svg>
